<?xml version="1.0" encoding="UTF-8"?>
<svg version="1.1" viewBox="0 0 2048 494" width="1280" height="1280" xmlns="http://www.w3.org/2000/svg">
<path transform="translate(425,33)" d="m0 0 4 1-8 17-10 27-9 29-13 50-21 89-13 49-9 29-10 27-10 23-11 21-10 15-8 10-11 12-11 9-13 8-14 6-16 4-10 1h-13l-16-2-15-4-19-7-21-11-12-8-16-12-14-12-20-20-9-11-10-13-11-17-11-21-7-19-3-14-1-15 2-14 5-12 7-9 11-7 7-2h15l13 4 10 5 12 9 14 14 15 20 10 13 11 12 12 12 12 7 7 2 9-1 8-4 10-9 12-17 11-19 11-21 15-34 18-44 12-27 10-21 12-21 12-17 11-13 15-15 15-11 21-11 21-7z" fill="#8BC233"/>
<path transform="translate(425,33)" d="m0 0 4 1-8 17-10 27-9 29-13 50-21 89-13 49-9 29-10 27-10 23-11 21-10 15-8 10-11 12-11 9-13 8-14 6-16 4-10 1h-13l-16-2-15-4v-1h24l18-3 16-6 16-9 15-13 9-10 12-17 2-4-14-13-11-9-4-4 14-26 11-24 14-36 21-61 5-17-4-2-13-12-2-1v-2l-4-2-14-13-1-3 3-10 12-25 12-21 12-17 11-13 15-15 15-11 21-11 21-7z" fill="#079346"/>
<path transform="translate(678,226)" d="m0 0h10l14 3 12 6 8 7 7 11 4 10 2 11v21l-4 20-6 16-7 13-8 10-10 10-11 7-11 5-12 3h-20l-10-3-9-5-7-7-3-5-6 32-10 57-1 1h-52l2-15 36-204 1-2h52l-1 10-1 8 7-7 11-7 15-5zm-25 46-9 3-9 7-7 11-3 13v8l3 10 4 5 8 4 10 1 13-4 10-9 6-12 2-10v-8l-3-9-5-6-5-3-4-1z" fill="#079346"/>
<path transform="translate(1076,181)" d="m0 0h53l-11 63 1 1 10-9 12-6 10-3 8-1h10l14 3 12 6 8 7 7 11 4 10 2 10v23l-3 16-6 17-8 15-8 10-10 10-11 7-11 5-12 3h-20l-13-4-9-6-6-8-1-2-4 18h-53l14-80 20-113zm58 91-9 3-9 7-6 9-3 9-1 6v8l3 10 7 7 10 3 10-1 9-4 8-7 6-10 3-12v-9l-3-9-5-6-5-3-4-1z" fill="#079346"/>
<path transform="translate(1796,226)" d="m0 0h11l14 3 9 5 5 4 6 8 3-17 1-1h52l-2 15-23 130-1 4h-53l2-12v-5l-7 7-14 8-9 3-6 1h-20l-13-4-11-7-8-9-6-12-3-11-1-10v-10l2-16 5-18 8-16 7-11 14-14 13-8 13-5zm8 46-10 4-8 7-6 9-3 10v15l4 9 6 5 9 3 11-1 12-6 7-8 5-11 1-5v-14l-3-8-8-7-5-2z" fill="#079346"/>
<path transform="translate(1615,226)" d="m0 0h11l14 3 9 5 6 5 4 6h1l3-16 1-1h52l-2 14-23 130-1 5h-53l2-12v-5l-7 7-14 8-14 4h-20l-11-3-10-5-8-7-7-10-5-14-2-14v-9l2-17 5-18 8-16 7-11 14-14 13-8 13-5zm8 46-10 4-8 7-6 9-3 10v15l4 9 6 5 9 3 11-1 10-5 6-5 6-10 3-10v-14l-3-8-8-7-5-2z" fill="#079346"/>
<path transform="translate(818,226)" d="m0 0h11l14 3 9 5 5 4 6 8 3-17 1-1h52l-2 14-23 130-1 5h-53l3-18-8 8-14 8-9 3-6 1h-19l-12-3-10-6-8-7-6-9-5-14-2-13v-11l2-16 5-18 8-16 7-11 14-14 13-8 13-5zm8 46-12 5-8 8-5 10-2 8v14l3 7 5 6 6 3 11 1 10-3 9-6 6-8 4-10 1-4v-15l-4-8-7-6-5-2z" fill="#079346"/>
<path transform="translate(1299,226)" d="m0 0h11l14 3 9 5 6 5 4 6h1l3-16 1-1h52l-2 14-22 125-2 10h-53l2-12v-5l-7 7-14 8-14 4h-20l-11-3-10-5-8-7-6-9-5-11-2-9-1-18 2-17 5-18 8-16 7-11 14-14 13-8 13-5zm8 46-10 4-8 7-6 9-3 10v15l4 9 6 5 9 3 11-1 12-6 7-8 5-11 1-5v-15l-4-8-7-6-5-2z" fill="#079346"/>
<path transform="translate(396,228)" d="m0 0h58l2 6 14 72v5h2l2-6 15-28 17-32 9-16 1-1h57l-5 10-16 26-12 20-68 112-12 20-17 28-3 4h-57l7-12 11-17 28-44 2-3-1-7-16-64-18-71z" fill="#079346"/>
<path transform="translate(56,230)" d="m0 0h15l13 4 10 5 12 9 14 14 15 20 10 13 11 12 12 12 12 7 7 2 9-1 8-4 3-1-2 4-10 11-7 8-14 13-15 11-17 9-13 4-5 1h-18l-15-4-15-8-14-12-10-11-8-11-3-3-9-19-6-20-2-16 1-14 4-13 7-11 11-8z" fill="#364696"/>
<path transform="translate(1423,228)" d="m0 0h118l-1 9-6 33-12 11-11 9-15 14-11 9-15 14-7 6 61 1-1 12-5 28-1 3h-122l7-40 14-14 8-7 13-12 12-11 8-7 14-13-56-1 1-11 6-32z" fill="#079346"/>
<path transform="translate(2019,227)" d="m0 0h8l-1 11-7 41-2 4-26 1-12 4-7 6-5 10-5 25-8 45-1 3h-53l15-85 11-62 1-2h52l-2 16-1 9 12-12 13-8 13-5z" fill="#079346"/>
<path transform="translate(1041,227)" d="m0 0h8l-1 11-7 40-2 5-26 1-12 4-7 6-5 10-5 25-8 45-1 3h-53l13-74 13-73 1-2h52l-1 10-2 11v4l12-12 13-8 13-5z" fill="#079346"/>
<path transform="translate(63,96)" d="m0 0h7l10 5 10 10 10 15 140 1 1-11 5-12 5-4 7-1 2 2-1 4-6 3-3 5-3 14 4 1-1 5h-4l-1 19-1 6 5 1-1 5-4 1-3 10-6 9-7 7-14 8-19 7-24 6-38 8-9 3-1 2 117 1 3 2-1 5-19 1v3l4 4 1 7-5 6h-8l-5-6 1-8 4-3 1-4h-73l1 4 4 4 1 6-3 5-3 2h-7l-5-5v-7l5-6v-2l-13-2-5-3-2-2v-6l5-5 16-5 43-9 24-7 16-8 2-2-21 5-25 4-19 2h-20l-7-4-7-7-8-13-4-7-7-2 1-5h2l-11-23-1-1-7-1-1-4 1-2h3l-7-11-6-7-6-4-9-2-2-2 1-4zm41 37 1 5 10 19 4 1-2-6-10-19zm127 0-2 16v9h8l1-3 1-21-1-1zm-111 31 1 5 7 11 5 6 5 3h22l31-4 24-5 15-5 4-2 2-4v-5z" fill="#4F4B4B"/>
<path transform="translate(107,133)" d="m0 0h124l-1 16-1 9h-110l-12-24z" fill="#E2A645"/>
<path transform="translate(100,110)" d="m0 0h132v10h-128l-4-8z" fill="#E3A645"/>
<path transform="translate(123,167)" d="m0 0h104l-2 4-9 3-26 5-32 4h-23l-5-4-7-11z" fill="#fff"/>
<path transform="translate(44,235)" d="m0 0 14 7 8 6-4 4-29 16-4 2h-3l-1 3v-8l4-13 7-11z" fill="#fff"/>
</svg>
